<svg
    xmlns="http://www.w3.org/2000/svg"
    viewBox="0 0 512 511"
    id="vector">
    <path
        id="path"
        d="M 255.348 222.262 C 251.098 222.262 247.649 218.817 247.649 214.563 L 247.649 137.161 C 247.649 132.907 251.098 129.462 255.348 129.462 C 259.602 129.462 263.051 132.907 263.051 137.161 L 263.051 214.563 C 263.051 218.817 259.602 222.262 255.348 222.262 Z M 255.348 222.262"
        fill="#ee4a84"/>
    <path
        id="path_1"
        d="M 280.328 239.543 C 280.328 253.34 269.144 264.523 255.348 264.523 C 241.552 264.523 230.368 253.339 230.368 239.543 C 230.368 225.747 241.552 214.563 255.348 214.563 C 269.144 214.563 280.328 225.747 280.328 239.543 Z M 280.328 239.543"
        fill="#0470b2"/>
    <path
        id="path_2"
        d="M 298.703 307.879 C 298.703 331.82 279.293 351.231 255.348 351.231 C 231.407 351.231 211.996 331.821 211.996 307.879 C 211.996 283.934 231.406 264.524 255.348 264.524 C 279.293 264.524 298.703 283.934 298.703 307.879 Z M 298.703 307.879"
        fill="#fab700"/>
    <path
        id="path_3"
        d="M 133.527 186.926 C 129.273 186.926 125.824 183.481 125.824 179.227 L 125.824 101.825 C 125.824 97.571 129.273 94.126 133.527 94.126 C 137.777 94.126 141.226 97.571 141.226 101.825 L 141.226 179.227 C 141.226 183.481 137.777 186.926 133.527 186.926 Z M 133.527 186.926"
        fill="#ee4a84"/>
    <path
        id="path_4"
        d="M 375.633 165.301 C 371.379 165.301 367.934 161.856 367.934 157.602 L 367.934 80.2 C 367.934 75.946 371.379 72.501 375.633 72.501 C 379.887 72.501 383.332 75.946 383.332 80.2 L 383.332 157.602 C 383.332 161.856 379.887 165.301 375.633 165.301 Z M 375.633 165.301"
        fill="#ee4a84"/>
    <path
        id="path_5"
        d="M 154.777 264.266 L 112.273 264.266 C 100.527 264.266 91.007 254.743 91.007 242.996 L 91.007 200.492 C 91.007 188.746 100.527 179.226 112.273 179.226 L 154.777 179.226 C 166.523 179.226 176.047 188.746 176.047 200.492 L 176.047 242.996 C 176.047 254.742 166.524 264.266 154.777 264.266 Z M 154.777 264.266"
        fill="#f7c6ba"/>
    <path
        id="path_6"
        d="M 184.422 292.602 L 82.629 292.602 C 77.594 292.602 73.512 288.52 73.512 283.485 L 73.512 273.383 C 73.512 268.348 77.594 264.266 82.629 264.266 L 184.422 264.266 C 189.457 264.266 193.539 268.348 193.539 273.383 L 193.539 283.485 C 193.539 288.52 189.457 292.602 184.422 292.602 Z M 184.422 292.602"
        fill="#1dc2ff"/>
    <path
        id="path_7"
        d="M 173.93 332.23 L 93.121 332.23 C 88.086 332.23 84.004 328.148 84.004 323.113 L 84.004 301.718 C 84.004 296.683 88.086 292.601 93.121 292.601 L 173.93 292.601 C 178.965 292.601 183.047 296.683 183.047 301.718 L 183.047 323.113 C 183.047 328.148 178.965 332.23 173.93 332.23 Z M 173.93 332.23"
        fill="#fab700"/>
    <path
        id="path_8"
        d="M 396.887 332.23 L 354.383 332.23 C 342.637 332.23 333.113 322.71 333.113 310.964 L 333.113 268.46 C 333.113 256.714 342.636 247.19 354.383 247.19 L 396.887 247.19 C 408.633 247.19 418.153 256.713 418.153 268.46 L 418.153 310.964 C 418.153 322.71 408.633 332.23 396.887 332.23 Z M 396.887 332.23"
        fill="#f7c6ba"/>
    <path
        id="path_9"
        d="M 416.035 197.23 L 335.23 197.23 C 330.195 197.23 326.113 193.148 326.113 188.113 L 326.113 166.718 C 326.113 161.683 330.195 157.601 335.23 157.601 L 416.035 157.601 C 421.074 157.601 425.156 161.683 425.156 166.718 L 425.156 188.113 C 425.156 193.148 421.074 197.23 416.035 197.23 Z M 416.035 197.23"
        fill="#fab700"/>
    <path
        id="path_10"
        d="M 400.613 222.211 C 400.613 236.008 389.429 247.191 375.633 247.191 C 361.836 247.191 350.653 236.007 350.653 222.211 C 350.653 208.414 361.837 197.231 375.633 197.231 C 389.43 197.231 400.613 208.415 400.613 222.211 Z M 400.613 222.211"
        fill="#0470b2"/>
    <path
        id="path_11"
        d="M 154.211 179.227 L 120.762 179.227 C 132.821 179.227 142.594 189 142.594 201.059 L 142.594 242.434 C 142.594 254.493 132.821 264.266 120.762 264.266 L 154.211 264.266 C 166.27 264.266 176.047 254.493 176.047 242.434 L 176.047 201.059 C 176.047 189 166.27 179.227 154.211 179.227 Z M 154.211 179.227"
        fill="#f4ada5"/>
    <path
        id="path_12"
        d="M 396.32 247.191 L 362.871 247.191 C 374.93 247.191 384.703 256.968 384.703 269.023 L 384.703 310.398 C 384.703 322.457 374.93 332.23 362.871 332.23 L 396.32 332.23 C 408.379 332.23 418.152 322.457 418.152 310.398 L 418.152 269.023 C 418.152 256.968 408.379 247.191 396.32 247.191 Z M 396.32 247.191"
        fill="#f4ada5"/>
    <path
        id="path_13"
        d="M 173.688 292.602 L 144.618 292.602 C 149.79 292.602 153.981 296.793 153.981 301.965 L 153.981 322.871 C 153.981 328.039 149.79 332.23 144.618 332.23 L 173.688 332.23 C 178.856 332.23 183.047 328.039 183.047 322.871 L 183.047 301.965 C 183.047 296.793 178.856 292.602 173.688 292.602 Z M 173.688 292.602"
        fill="#faa200"/>
    <path
        id="path_14"
        d="M 415.793 157.602 L 386.727 157.602 C 391.895 157.602 396.086 161.793 396.086 166.961 L 396.086 187.871 C 396.086 193.039 391.895 197.23 386.727 197.23 L 415.793 197.23 C 420.965 197.23 425.156 193.039 425.156 187.871 L 425.156 166.961 C 425.156 161.793 420.965 157.602 415.793 157.602 Z M 415.793 157.602"
        fill="#faa200"/>
    <path
        id="path_15"
        d="M 377.473 197.305 C 380.469 201.426 382.243 206.496 382.243 211.981 C 382.243 225.774 371.059 236.961 357.263 236.961 C 356.642 236.961 356.029 236.93 355.423 236.887 C 359.962 243.129 367.321 247.192 375.634 247.192 C 389.431 247.192 400.614 236.008 400.614 222.212 C 400.614 209.036 390.411 198.251 377.473 197.306 Z M 377.473 197.305"
        fill="#005ca0"/>
    <path
        id="path_16"
        d="M 184.18 264.266 L 157.242 264.266 C 162.41 264.266 166.601 268.457 166.601 273.625 L 166.601 283.242 C 166.601 288.41 162.41 292.601 157.242 292.601 L 184.18 292.601 C 189.348 292.601 193.539 288.41 193.539 283.242 L 193.539 273.625 C 193.539 268.457 189.348 264.266 184.18 264.266 Z M 184.18 264.266"
        fill="#00a2ff"/>
    <path
        id="path_17"
        d="M 257.188 214.637 C 260.184 218.758 261.958 223.825 261.958 229.309 C 261.958 243.106 250.774 254.289 236.978 254.289 C 236.357 254.289 235.744 254.262 235.138 254.215 C 239.677 260.461 247.036 264.524 255.349 264.524 C 269.146 264.524 280.329 253.34 280.329 239.544 C 280.329 226.368 270.126 215.579 257.188 214.638 Z M 257.188 214.637"
        fill="#005ca0"/>
    <path
        id="path_18"
        d="M 255.348 264.523 C 250.629 264.523 246.086 265.289 241.832 266.683 C 259.152 272.367 271.668 288.656 271.668 307.878 C 271.668 327.097 259.152 343.386 241.832 349.069 C 246.086 350.464 250.629 351.229 255.348 351.229 C 279.293 351.229 298.703 331.819 298.703 307.877 C 298.703 283.932 279.293 264.522 255.348 264.522 Z M 255.348 264.523"
        fill="#faa200"/>
    <path
        id="path_19"
        d="M 422.051 440.355 L 88.649 440.355 C 65.411 440.355 46.575 421.515 46.575 398.277 L 46.575 355.054 L 464.126 355.054 L 464.126 398.277 C 464.126 421.515 445.286 440.355 422.052 440.355 Z M 422.051 440.355"
        fill="#ed500a"/>
    <path
        id="path_20"
        d="M 405.941 355.055 L 405.941 372.856 C 405.941 396.715 386.601 416.051 362.746 416.051 L 50.918 416.051 C 57.93 430.438 72.688 440.356 89.77 440.356 L 420.93 440.356 C 444.785 440.356 464.125 421.016 464.125 397.161 L 464.125 355.056 Z M 405.941 355.055"
        fill="#d1390a"/>
    <path
        id="path_21"
        d="M 504 370.016 L 8 370.016 C 3.582 370.016 0 366.434 0 362.016 L 0 340.231 C 0 335.813 3.582 332.231 8 332.231 L 504 332.231 C 508.418 332.231 512 335.813 512 340.231 L 512 362.016 C 512 366.434 508.418 370.016 504 370.016 Z M 504 370.016"
        fill="#ff6914"/>
    <path
        id="path_22"
        d="M 503.785 332.23 L 440.449 332.23 C 444.984 332.23 448.66 335.91 448.66 340.445 L 448.66 361.804 C 448.66 366.339 444.984 370.015 440.449 370.015 L 503.785 370.015 C 508.324 370.015 512 366.339 512 361.804 L 512 340.445 C 512 335.91 508.324 332.23 503.785 332.23 Z M 503.785 332.23"
        fill="#ed500a"/>
</svg>
