<svg
    xmlns="http://www.w3.org/2000/svg"
    viewBox="0 0 504 504"
    id="vector">
    <path
        id="path"
        d="M 252 252 M 0 252 C 0 185.191 26.568 121.05 73.809 73.809 C 121.05 26.568 185.191 0 252 0 C 318.809 0 382.95 26.568 430.191 73.809 C 477.432 121.05 504 185.191 504 252 C 504 318.809 477.432 382.95 430.191 430.191 C 382.95 477.432 318.809 504 252 504 C 185.191 504 121.05 477.432 73.809 430.191 C 26.568 382.95 0 318.809 0 252"
        fill="#fd8469"/>
    <path
        id="path_1"
        d="M 252 252 M 74.8 252 C 74.8 205.022 93.482 159.919 126.701 126.701 C 159.919 93.482 205.022 74.8 252 74.8 C 298.978 74.8 344.081 93.482 377.299 126.701 C 410.518 159.919 429.2 205.022 429.2 252 C 429.2 298.978 410.518 344.081 377.299 377.299 C 344.081 410.518 298.978 429.2 252 429.2 C 205.022 429.2 159.919 410.518 126.701 377.299 C 93.482 344.081 74.8 298.978 74.8 252"
        fill="#324a5e"/>
    <path
        id="path_2"
        d="M 390 260.3 L 397.7 260.3 C 393.6 334.3 334.3 393.6 260.3 397.7 L 260.3 390 C 260.3 387.7 259.4 385.6 257.9 384.1 C 256.4 382.6 254.3 381.7 252.1 381.7 C 247.5 381.7 243.8 385.4 243.8 390 L 243.8 397.7 C 169.8 393.6 110.5 334.3 106.4 260.3 L 114.1 260.3 C 116.4 260.3 118.4 259.4 119.9 257.9 C 121.4 256.4 122.3 254.3 122.3 252 C 122.3 247.5 118.6 243.7 114 243.7 L 106.3 243.7 C 110.4 169.7 169.7 110.4 243.7 106.3 L 243.7 114 C 243.7 116.3 244.6 118.4 246.1 119.9 C 247.6 121.4 249.7 122.3 252 122.3 C 256.5 122.3 260.3 118.6 260.3 114 L 260.3 106.3 C 334.3 110.4 393.6 169.7 397.7 243.7 L 390 243.7 C 387.7 243.7 385.6 244.6 384.2 246.1 C 382.7 247.6 381.8 249.7 381.8 251.9 C 381.7 256.6 385.4 260.3 390 260.3 Z"
        fill="#ffffff"/>
    <path
        id="path_3"
        d="M 334.6 331.6 L 253.5 250.5 C 252.7 249.7 251.3 249.7 250.5 250.5 C 249.7 251.3 249.7 252.7 250.5 253.5 L 331.6 334.6 C 332 335 332.5 335.2 333.1 335.2 C 333.7 335.2 334.2 335 334.6 334.6 C 335.4 333.8 335.4 332.4 334.6 331.6 Z"
        fill="#ff7058"/>
    <path
        id="path_4"
        d="M 252 137.1 C 248.5 137.1 245.7 139.9 245.7 143.4 L 245.7 252 C 245.7 255.5 248.5 258.3 252 258.3 C 255.5 258.3 258.3 255.5 258.3 252 L 258.3 143.4 C 258.3 140 255.5 137.1 252 137.1 Z"
        fill="#ffd05b"/>
    <path
        id="path_5"
        d="M 256.5 247.5 C 254 245 250 245 247.6 247.5 L 189.2 305.9 C 186.7 308.4 186.7 312.4 189.2 314.8 C 190.4 316 192 316.6 193.7 316.6 C 195.3 316.6 196.9 316 198.2 314.8 L 256.6 256.4 C 258.9 254 258.9 250 256.5 247.5 Z"
        fill="#ffd05b"/>
    <path
        id="path_6"
        d="M 252 252 M 225.3 252 C 225.3 244.921 228.115 238.126 233.12 233.12 C 238.126 228.115 244.921 225.3 252 225.3 C 259.079 225.3 265.874 228.115 270.88 233.12 C 275.885 238.126 278.7 244.921 278.7 252 C 278.7 259.079 275.885 265.874 270.88 270.88 C 265.874 275.885 259.079 278.7 252 278.7 C 244.921 278.7 238.126 275.885 233.12 270.88 C 228.115 265.874 225.3 259.079 225.3 252"
        fill="#e6e9ee"/>
    <path
        id="path_7"
        d="M 252 252 M 237 252 C 237 248.023 238.581 244.205 241.393 241.393 C 244.205 238.581 248.023 237 252 237 C 255.977 237 259.795 238.581 262.607 241.393 C 265.419 244.205 267 248.023 267 252 C 267 255.977 265.419 259.795 262.607 262.607 C 259.795 265.419 255.977 267 252 267 C 248.023 267 244.205 265.419 241.393 262.607 C 238.581 259.795 237 255.977 237 252"
        fill="#ced5e0"/>
</svg>
