<svg
    xmlns="http://www.w3.org/2000/svg"
    viewBox="0 0 512 512"
    id="vector">
    <path
        id="path"
        d="M 199.079 83.256 L 229.328 163.792 C 230.618 159.572 303.162 106.057 306.005 107.083 C 305.243 103.947 304.217 100.782 302.927 97.705 C 289.942 66.669 254.271 52.015 223.231 64.998 C 213.441 69.1 205.263 75.46 199.079 83.256 Z"
        fill="#ff9a9f"
        fill-rule="evenodd"/>
    <path
        id="path_1"
        d="M 243.455 60.367 C 249.229 73.848 252.541 89.528 252.541 106.262 C 252.541 109.456 252.424 112.622 252.189 115.728 C 267.167 104.005 287.802 100.43 305.974 107.082 C 305.271 104.151 304.362 101.221 303.189 98.319 C 303.101 98.114 303.013 97.909 302.925 97.704 C 292.726 73.291 268.457 59.019 243.455 60.367 Z"
        fill="#ff8086"
        fill-rule="evenodd"/>
    <path
        id="path_2"
        d="M 233.958 142.046 C 188.409 305.58 416.916 279.701 483.07 245.119 C 485.415 238.642 486.734 231.843 486.734 224.868 C 486.734 186.241 458.332 156.758 421.957 153.036 C 419.788 80.677 340.59 67.225 306.004 107.082 C 281.881 98.261 253.508 107.404 239.586 129.678 C 237.124 133.664 235.248 137.796 233.958 142.046 Z"
        fill="#b3e59f"
        fill-rule="evenodd"/>
    <path
        id="path_3"
        d="M 288.037 185.948 C 270.48 204.47 260.631 236.386 281.501 270.499 L 382.066 245.119 C 383.532 234.656 382.3 223.666 377.933 213.204 C 364.948 182.197 329.277 167.543 298.237 180.527 C 294.602 182.05 291.202 183.867 288.037 185.948 Z"
        fill="#ff9a9f"
        fill-rule="evenodd"/>
    <path
        id="path_4"
        d="M 392.764 173.023 C 402.612 196.996 407.302 221.556 407.39 245.119 L 483.07 245.119 C 485.415 238.642 486.734 231.843 486.734 224.868 C 486.734 186.241 458.332 156.758 421.957 153.036 C 420.169 93.689 366.589 73.965 328.251 90.788 C 355.363 109.808 378.402 138.031 392.764 173.023 Z"
        fill="#95d6a4"
        fill-rule="evenodd"/>
    <path
        id="path_5"
        d="M 322.506 175.808 C 331.973 191.546 337.689 211.68 337.689 233.69 C 337.689 237.559 337.513 241.368 337.161 245.12 L 382.065 245.12 C 383.531 234.657 382.299 223.667 377.932 213.205 C 368.26 190.11 346.043 176.101 322.506 175.808 Z"
        fill="#ff8086"
        fill-rule="evenodd"/>
    <path
        id="path_6"
        d="M 87.874 140.844 C 49.711 144.742 19.961 175.661 19.961 216.134 C 19.961 226.304 22.599 236.121 27.113 245.119 L 178.093 283.072 L 286.924 245.119 C 291.409 236.122 294.076 226.304 294.076 216.134 C 294.076 205.29 291.907 195.121 288.038 185.948 C 285.957 180.995 283.319 176.335 280.271 172.027 C 269.426 156.729 253.012 145.944 233.96 142.046 C 231.41 141.518 228.801 141.108 226.134 140.844 C 225.343 113.999 214.439 94.89 199.08 83.255 C 158.835 52.747 87.932 73.496 87.874 140.844 Z"
        fill="#b3e59f"
        fill-rule="evenodd"/>
    <path
        id="path_7"
        d="M 216.782 167.338 C 227.422 193.246 232.053 219.827 231.349 245.119 L 261.393 245.119 L 286.923 245.119 C 291.408 236.122 294.075 226.304 294.075 216.134 C 294.075 205.29 291.906 195.121 288.037 185.948 C 285.956 180.995 283.318 176.335 280.27 172.027 C 269.425 156.729 253.011 145.944 233.959 142.046 C 231.409 141.518 228.8 141.108 226.133 140.844 C 225.342 113.999 214.438 94.89 199.079 83.255 C 180.32 69.041 154.878 65.934 133.101 73.525 C 168.39 91.579 199.137 124.344 216.782 167.338 Z"
        fill="#95d6a4"
        fill-rule="evenodd"/>
    <path
        id="path_8"
        d="M 206.612 187.748 C 204.499 184.041 199.78 182.749 196.074 184.862 L 164.745 202.72 L 164.745 154.824 C 164.745 150.556 161.286 147.098 157.019 147.098 C 152.752 147.098 149.293 150.557 149.293 154.824 L 149.293 202.725 L 117.932 184.861 C 114.227 182.747 109.507 184.042 107.395 187.75 C 105.282 191.457 106.576 196.176 110.284 198.287 L 149.293 220.507 L 149.293 247.055 C 149.293 251.323 152.752 254.781 157.019 254.781 C 161.286 254.781 164.745 251.322 164.745 247.055 L 164.745 220.506 L 203.726 198.287 C 207.433 196.174 208.725 191.456 206.612 187.748 Z"
        fill="#95d6a4"/>
    <path
        id="path_9"
        d="M 12.34 245.119 L 499.66 245.119 C 506.46 245.119 512 250.687 512 257.457 L 512 366.538 C 512 413.4 473.662 451.734 426.794 451.734 L 85.206 451.734 C 38.338 451.734 0 413.401 0 366.539 L 0 257.457 C 0 250.687 5.54 245.119 12.34 245.119 Z"
        fill="#c3ddff"
        fill-rule="evenodd"/>
    <path
        id="path_10"
        d="M 0 293.593 L 0 341.276 L 512 341.276 L 512 293.593 C 341.324 293.593 170.676 293.593 0 293.593 Z"
        fill="#a9aac9"
        fill-rule="evenodd"/>
    <path
        id="path_11"
        d="M 450.359 246.702 L 450.359 293.593 L 512 293.593 L 512 257.457 C 512 250.687 506.46 245.119 499.66 245.119 L 483.07 245.119 L 450.242 245.119 C 450.33 245.647 450.359 246.174 450.359 246.702 Z"
        fill="#a4ccfe"
        fill-rule="evenodd"/>
    <path
        id="path_12"
        d="M 450.359 293.593 L 512 293.593 L 512 341.276 L 450.359 341.276 Z"
        fill="#8080a4"
        fill-rule="evenodd"/>
    <path
        id="path_13"
        d="M 450.359 361.82 C 450.359 411.261 409.881 451.734 360.434 451.734 L 426.793 451.734 C 473.661 451.734 511.999 413.4 511.999 366.538 L 511.999 341.275 L 450.358 341.275 L 450.358 361.82 Z"
        fill="#a4ccfe"
        fill-rule="evenodd"/>
</svg>
