<svg
    xmlns="http://www.w3.org/2000/svg"
    viewBox="0 0 512 512"
    id="vector">
    <path
        id="path"
        d="M 4.339 234.305 L 507.661 234.305 L 507.661 234.305 L 507.661 459.932 C 507.661 488.691 484.352 512 455.593 512 L 455.593 512 L 4.339 512 L 4.339 512 L 4.339 234.305 L 4.339 234.305 Z"
        fill="#f0dbc2"/>
    <path
        id="path_1"
        d="M 4.339 286.373 L 429.559 286.373 C 443.938 286.373 455.593 298.027 455.593 312.407 L 455.593 433.899 C 455.593 448.278 443.938 459.933 429.559 459.933 L 4.339 459.933 L 4.339 459.933 L 4.339 286.373 L 4.339 286.373 Z"
        fill="#f2b9b8"/>
    <path
        id="path_2"
        d="M 4.339 286.373 L 429.559 286.373 C 443.938 286.373 455.593 298.027 455.593 312.407 L 455.593 433.899 C 455.593 448.278 443.938 459.933 429.559 459.933 L 4.339 459.933 L 4.339 459.933 L 4.339 286.373 L 4.339 286.373 Z"
        fill="#f2b9b8"/>
    <path
        id="path_3"
        d="M 4.339 234.305 L 308.068 52.068 L 308.068 52.068 C 411.388 52.085 497.768 130.63 507.583 233.481 L 507.661 234.305 L 4.339 234.305 Z"
        fill="#f29c9b"/>
    <path
        id="path_4"
        d="M 403.525 95.458 M 351.457 95.458 C 351.457 81.654 356.946 68.401 366.707 58.64 C 376.468 48.879 389.721 43.39 403.525 43.39 C 417.329 43.39 430.582 48.879 440.343 58.64 C 450.104 68.401 455.593 81.654 455.593 95.458 C 455.593 109.262 450.104 122.515 440.343 132.276 C 430.582 142.037 417.329 147.526 403.525 147.526 C 389.721 147.526 376.468 142.037 366.707 132.276 C 356.946 122.515 351.457 109.262 351.457 95.458"
        fill="#f0614a"/>
    <path
        id="path_5"
        d="M 429.438 50.332 C 428.188 89.036 397.104 120.12 358.4 121.37 C 372.667 146.337 404.471 155.014 429.438 140.757 C 454.404 126.49 463.082 94.686 448.825 69.719 C 444.208 61.64 437.517 54.949 429.438 50.332 Z"
        fill="#ea5242"/>
    <path
        id="path_6"
        d="M 412.203 78.102 L 394.847 78.102 C 394.9 34.99 429.837 0.052 472.949 0 L 472.949 17.356 C 439.418 17.391 412.238 44.57 412.203 78.102 Z"
        fill="#965735"/>
    <path
        id="path_7"
        d="M 331.56 106.68 L 319.288 118.952 L 293.253 92.917 L 305.525 80.645 Z"
        fill="#965735"/>
    <path
        id="path_8"
        d="M 236.124 144.977 L 210.089 171.012 L 197.817 158.74 L 223.852 132.705 Z"
        fill="#965735"/>
    <path
        id="path_9"
        d="M 270.817 193.467 L 258.545 205.739 L 232.51 179.704 L 244.782 167.432 Z"
        fill="#965735"/>
    <path
        id="path_10"
        d="M 314.208 145.004 L 288.173 171.039 L 275.901 158.767 L 301.936 132.732 Z"
        fill="#965735"/>
    <path
        id="path_11"
        d="M 461.729 179.688 L 435.694 205.723 L 423.422 193.451 L 449.457 167.416 Z"
        fill="#965735"/>
    <path
        id="path_12"
        d="M 366.276 179.696 L 340.241 205.731 L 327.969 193.459 L 354.004 167.424 Z"
        fill="#965735"/>
    <path
        id="path_13"
        d="M 175.358 179.734 L 149.323 205.769 L 137.051 193.497 L 163.086 167.462 Z"
        fill="#965735"/>
    <path
        id="path_14"
        d="M 322.681 286.373 L 429.559 286.373 C 443.938 286.373 455.593 298.027 455.593 312.407 L 455.593 433.899 C 455.593 448.278 443.938 459.933 429.559 459.933 L 121.717 459.933 L 61.431 512 L 455.593 512 C 484.352 512 507.661 488.691 507.661 459.932 L 507.661 459.932 L 507.661 234.305 L 382.976 234.305 L 322.681 286.373 Z"
        fill="#ebd3b7"/>
    <path
        id="path_15"
        d="M 429.559 459.932 C 443.938 459.932 455.593 448.278 455.593 433.898 L 455.593 312.407 C 455.593 298.028 443.938 286.373 429.559 286.373 L 322.681 286.373 L 121.717 459.932 L 429.559 459.932 Z"
        fill="#f2aeac"/>
    <path
        id="path_16"
        d="M 4.339 364.475 L 455.593 364.475 L 455.593 381.831 L 4.339 381.831 Z"
        fill="#f28685"/>
</svg>
