<svg
    xmlns="http://www.w3.org/2000/svg"
    viewBox="0 0 512 512"
    id="vector">
    <path
        id="path"
        d="M 512 372.277 L 512 445.832 C 512 451.523 507.387 456.137 501.699 456.137 L 322.242 456.137 L 322.242 372.278 C 322.242 347.434 342.383 327.29 367.23 327.29 L 467.011 327.29 C 491.859 327.29 511.999 347.435 511.999 372.278 Z M 512 372.277"
        fill="#eb5777"/>
    <path
        id="path_1"
        d="M 393.313 374.121 L 393.313 456.137 L 322.243 456.137 L 322.243 372.278 C 322.243 347.43 342.384 327.29 367.231 327.29 L 375.84 327.29 C 386.731 339.86 393.313 356.239 393.313 374.122 Z M 393.313 374.121"
        fill="#ce3f63"/>
    <path
        id="path_2"
        d="M 418.195 352.621 C 409.726 352.621 402.859 345.754 402.859 337.285 L 402.859 294.265 L 433.531 294.265 L 433.531 337.285 C 433.531 345.754 426.664 352.621 418.195 352.621 Z M 418.195 352.621"
        fill="#e39f6e"/>
    <path
        id="path_3"
        d="M 337.063 234.273 L 499.329 234.273 L 503.61 213.398 C 514.696 159.328 473.387 108.699 418.196 108.699 C 363.005 108.699 321.7 159.328 332.786 213.398 Z M 337.063 234.273"
        fill="#ba6f3c"/>
    <path
        id="path_4"
        d="M 508.379 242.441 C 508.379 253.847 499.137 263.089 487.731 263.089 C 476.329 263.089 467.086 253.847 467.086 242.441 C 467.086 231.039 476.328 221.796 487.731 221.796 C 499.137 221.796 508.379 231.038 508.379 242.441 Z M 508.379 242.441"
        fill="#e39f6e"/>
    <path
        id="path_5"
        d="M 369.305 242.445 C 369.305 253.847 360.067 263.093 348.657 263.093 C 337.255 263.093 328.009 253.847 328.009 242.445 C 328.009 240.703 328.22 239.004 328.642 237.386 C 330.892 228.437 338.997 221.796 348.658 221.796 C 358.443 221.796 366.635 228.605 368.76 237.737 C 369.115 239.245 369.307 240.827 369.307 242.444 Z M 369.305 242.445"
        fill="#e39f6e"/>
    <path
        id="path_6"
        d="M 368.758 237.738 C 362.93 241.086 356.184 242.992 348.992 242.992 C 341.562 242.992 334.605 240.945 328.64 237.387 C 330.89 228.438 338.995 221.797 348.656 221.797 C 358.441 221.797 366.633 228.606 368.758 237.738 Z M 368.758 237.738"
        fill="#d88852"/>
    <path
        id="path_7"
        d="M 353.211 184.691 L 360.289 241.359 L 362.973 262.851 C 366.453 290.699 390.133 311.601 418.192 311.601 C 446.262 311.601 469.942 290.699 473.415 262.851 L 483.177 184.691 Z M 353.211 184.691"
        fill="#f8c298"/>
    <path
        id="path_8"
        d="M 388.855 203.133 C 388.855 221.196 376.777 236.481 360.289 241.36 L 352.699 180.614 L 381.879 180.614 C 386.281 187.032 388.856 194.782 388.856 203.134 Z M 388.855 203.133"
        fill="#e39f6e"/>
    <path
        id="path_9"
        d="M 387.969 248.988 C 383.797 248.988 380.364 245.664 380.25 241.472 L 380.16 238.199 C 380.043 233.933 383.406 230.383 387.672 230.265 C 391.942 230.132 395.488 233.511 395.606 237.777 L 395.696 241.05 C 395.813 245.316 392.45 248.866 388.184 248.984 C 388.11 248.984 388.039 248.988 387.969 248.988 Z M 387.969 248.988"
        fill="#aa5b26"/>
    <path
        id="path_10"
        d="M 448.508 248.988 C 444.336 248.988 440.903 245.664 440.785 241.472 L 440.695 238.199 C 440.578 233.933 443.941 230.383 448.211 230.265 C 452.481 230.132 456.027 233.511 456.145 237.777 L 456.235 241.05 C 456.352 245.316 452.989 248.866 448.723 248.984 C 448.649 248.984 448.578 248.988 448.508 248.988 Z M 448.508 248.988"
        fill="#aa5b26"/>
    <path
        id="path_11"
        d="M 418.195 277.992 C 408.468 277.992 399.254 273.281 393.539 265.39 C 391.035 261.933 391.809 257.105 395.266 254.601 C 398.723 252.097 403.551 252.871 406.055 256.328 C 408.871 260.219 413.41 262.539 418.196 262.539 C 422.981 262.539 427.524 260.219 430.341 256.328 C 432.845 252.871 437.673 252.098 441.13 254.601 C 444.587 257.105 445.36 261.933 442.857 265.39 C 437.142 273.281 427.923 277.992 418.197 277.992 Z M 418.195 277.992"
        fill="#e39f6e"/>
    <path
        id="path_12"
        d="M 358.887 463.859 C 354.617 463.859 351.16 460.402 351.16 456.136 L 351.16 385.902 C 351.16 381.636 354.617 378.175 358.887 378.175 C 363.153 378.175 366.61 381.636 366.61 385.902 L 366.61 456.136 C 366.614 460.402 363.153 463.859 358.887 463.859 Z M 358.887 463.859"
        fill="#000000"/>
    <path
        id="path_13"
        d="M 483.074 385.898 L 483.074 456.136 L 467.621 456.136 L 467.621 385.898 C 467.621 381.632 471.082 378.171 475.348 378.171 C 479.621 378.171 483.075 381.632 483.075 385.898 Z M 483.074 385.898"
        fill="#ce3f63"/>
    <path
        id="path_14"
        d="M 341.066 186.297 C 341.066 186.297 354.921 200.039 392.23 201.035 C 394.589 201.098 396.523 199.199 396.523 196.84 L 396.523 191.305 C 396.523 191.305 410.089 200.203 438.836 201.032 C 441.195 201.098 443.129 199.196 443.129 196.837 L 443.129 193.696 C 443.129 193.696 454.309 200.52 487.813 201.059 C 490.153 201.094 492.067 199.2 492.067 196.864 L 492.067 176.493 C 492.067 173.825 489.903 171.665 487.239 171.665 L 355.7 171.665 C 347.618 171.665 341.067 178.216 341.067 186.298 Z M 341.066 186.297"
        fill="#ba6f3c"/>
    <path
        id="path_15"
        d="M 392.301 208.762 C 392.196 208.762 392.09 208.758 391.985 208.758 C 367.684 208.106 352.383 202.301 343.829 197.547 C 340.099 195.473 338.759 190.77 340.829 187.039 C 342.903 183.309 347.606 181.969 351.337 184.039 C 356.786 187.066 368.696 192.113 388.798 193.168 L 388.798 191.305 C 388.798 188.465 390.357 185.852 392.857 184.504 C 395.353 183.152 398.392 183.285 400.763 184.844 C 400.826 184.883 412.115 191.844 435.423 193.153 C 435.591 190.508 437.001 188.055 439.353 186.798 C 441.845 185.466 444.732 185.517 447.091 187.056 C 448.013 187.529 458.314 192.501 484.954 193.267 C 489.22 193.388 492.579 196.943 492.458 201.212 C 492.333 205.474 488.77 208.829 484.513 208.712 C 467.056 208.212 455.56 206.009 448.486 203.97 C 448.111 204.466 447.697 204.939 447.244 205.38 C 444.943 207.614 441.779 208.837 438.572 208.751 C 422.318 208.282 410.439 205.317 402.783 202.587 C 402.22 203.603 401.506 204.54 400.65 205.372 C 398.427 207.536 395.4 208.763 392.302 208.763 Z M 392.301 208.762"
        fill="#aa5b26"/>
    <path
        id="path_16"
        d="M 189.758 372.277 L 189.758 456.136 L 10.301 456.136 C 4.613 456.136 0 451.523 0 445.831 L 0 372.276 C 0 347.432 20.141 327.288 44.988 327.288 L 144.769 327.288 C 169.617 327.288 189.757 347.433 189.757 372.276 Z M 189.758 372.277"
        fill="#4fceb7"/>
    <path
        id="path_17"
        d="M 189.758 372.277 L 189.758 456.136 L 118.688 456.136 L 118.688 374.12 C 118.688 356.237 125.27 339.858 136.161 327.288 L 144.77 327.288 C 169.618 327.288 189.758 347.429 189.758 372.276 Z M 189.758 372.277"
        fill="#3db4a0"/>
    <path
        id="path_18"
        d="M 95.961 352.621 C 87.488 352.621 80.625 345.754 80.625 337.285 L 80.625 294.265 L 111.297 294.265 L 111.297 337.285 C 111.297 345.754 104.43 352.621 95.961 352.621 Z M 95.961 352.621"
        fill="#e39f6e"/>
    <path
        id="path_19"
        d="M 14.824 234.273 L 177.094 234.273 L 181.375 213.398 C 192.457 159.328 151.152 108.699 95.961 108.699 C 40.77 108.699 -0.535 159.328 10.547 213.398 Z M 14.824 234.273"
        fill="#ba6f3c"/>
    <path
        id="path_20"
        d="M 186.145 242.445 C 186.145 253.847 176.899 263.093 165.497 263.093 C 154.099 263.093 144.849 253.847 144.849 242.445 C 144.849 240.703 145.06 239.004 145.482 237.386 C 147.732 228.437 155.837 221.796 165.498 221.796 C 175.283 221.796 183.486 228.605 185.6 237.745 C 185.959 239.257 186.147 240.827 186.147 242.444 Z M 186.145 242.445"
        fill="#e39f6e"/>
    <path
        id="path_21"
        d="M 185.598 237.746 C 179.77 241.082 173.024 242.992 165.844 242.992 C 158.414 242.992 151.446 240.945 145.481 237.387 C 147.731 228.438 155.836 221.797 165.497 221.797 C 175.286 221.797 183.485 228.606 185.599 237.746 Z M 185.598 237.746"
        fill="#d88852"/>
    <path
        id="path_22"
        d="M 47.07 242.441 C 47.07 253.847 37.828 263.089 26.425 263.089 C 15.019 263.089 5.777 253.847 5.777 242.441 C 5.777 231.039 15.019 221.796 26.425 221.796 C 37.827 221.796 47.07 231.038 47.07 242.441 Z M 47.07 242.441"
        fill="#e39f6e"/>
    <path
        id="path_23"
        d="M 30.977 184.691 L 40.739 262.851 C 44.223 290.699 67.891 311.601 95.962 311.601 C 124.032 311.601 147.7 290.699 151.185 262.851 L 153.896 241.167 L 160.947 184.69 Z M 30.977 184.691"
        fill="#f8c298"/>
    <path
        id="path_24"
        d="M 130.523 184.691 C 127.628 190.214 125.984 196.48 125.984 203.132 C 125.984 220.952 137.734 236.077 153.894 241.167 L 160.945 184.694 L 130.523 184.694 Z M 130.523 184.691"
        fill="#e39f6e"/>
    <path
        id="path_25"
        d="M 65.73 248.988 C 61.562 248.988 58.128 245.664 58.011 241.472 L 57.921 238.199 C 57.804 233.933 61.167 230.383 65.433 230.265 C 69.718 230.132 73.253 233.511 73.371 237.777 L 73.461 241.05 C 73.578 245.316 70.215 248.866 65.949 248.984 C 65.875 248.984 65.804 248.988 65.73 248.988 Z M 65.73 248.988"
        fill="#aa5b26"/>
    <path
        id="path_26"
        d="M 126.27 248.988 C 122.102 248.988 118.665 245.664 118.551 241.472 L 118.461 238.199 C 118.344 233.933 121.707 230.383 125.973 230.265 C 130.258 230.132 133.789 233.511 133.907 237.777 L 133.997 241.05 C 134.114 245.316 130.755 248.866 126.485 248.984 C 126.415 248.984 126.34 248.988 126.27 248.988 Z M 126.27 248.988"
        fill="#aa5b26"/>
    <path
        id="path_27"
        d="M 95.961 277.992 C 86.234 277.992 77.016 273.281 71.301 265.39 C 68.797 261.933 69.571 257.105 73.028 254.601 C 76.485 252.097 81.313 252.871 83.817 256.328 C 86.633 260.219 91.176 262.539 95.962 262.539 C 100.747 262.539 105.286 260.219 108.103 256.328 C 110.607 252.871 115.435 252.098 118.892 254.601 C 122.349 257.105 123.122 261.933 120.619 265.39 C 114.904 273.281 105.689 277.992 95.963 277.992 Z M 95.961 277.992"
        fill="#e39f6e"/>
    <path
        id="path_28"
        d="M 44.379 385.898 L 44.379 456.136 L 28.93 456.136 L 28.93 385.898 C 28.93 381.632 32.379 378.171 36.653 378.171 C 40.919 378.171 44.38 381.632 44.38 385.898 Z M 44.379 385.898"
        fill="#3db4a0"/>
    <path
        id="path_29"
        d="M 153.113 463.859 C 148.847 463.859 145.39 460.402 145.39 456.136 L 145.39 385.902 C 145.39 381.636 148.847 378.175 153.113 378.175 C 157.383 378.175 160.84 381.636 160.84 385.902 L 160.84 456.136 C 160.84 460.402 157.383 463.859 153.113 463.859 Z M 153.113 463.859"
        fill="#000000"/>
    <path
        id="path_30"
        d="M 18.828 186.297 C 18.828 186.297 32.683 200.039 69.992 201.035 C 72.351 201.098 74.289 199.199 74.289 196.84 L 74.289 191.305 C 74.289 191.305 87.855 200.203 116.598 201.032 C 118.961 201.098 120.895 199.196 120.895 196.837 L 120.895 193.696 C 120.895 193.696 132.075 200.52 165.579 201.059 C 167.915 201.094 169.829 199.2 169.829 196.864 L 169.829 176.493 C 169.829 173.825 167.669 171.665 165.005 171.665 L 33.466 171.665 C 25.384 171.665 18.829 178.216 18.829 186.298 Z M 18.828 186.297"
        fill="#ba6f3c"/>
    <path
        id="path_31"
        d="M 165.555 208.781 C 165.512 208.781 165.473 208.781 165.43 208.781 C 146.188 208.472 133.739 206.129 126.246 203.972 C 125.875 204.468 125.461 204.937 125.008 205.378 C 122.707 207.612 119.543 208.839 116.336 208.749 C 100.082 208.28 88.199 205.315 80.547 202.585 C 79.984 203.601 79.27 204.538 78.41 205.374 C 76.113 207.608 72.949 208.851 69.75 208.757 C 48.113 208.175 33.754 203.429 25.516 199.55 C 21.653 197.73 19.996 193.128 21.817 189.265 C 23.633 185.406 28.239 183.753 32.098 185.57 C 38.551 188.609 49.645 192.285 66.563 193.168 L 66.563 191.305 C 66.563 188.465 68.122 185.852 70.622 184.504 C 73.118 183.152 76.157 183.285 78.528 184.844 C 78.594 184.883 89.883 191.844 113.188 193.153 C 113.356 190.508 114.766 188.055 117.118 186.798 C 119.61 185.466 122.497 185.517 124.852 187.056 C 125.809 187.548 136.836 192.865 165.68 193.333 C 169.946 193.399 173.348 196.915 173.282 201.185 C 173.212 205.408 169.766 208.783 165.555 208.783 Z M 165.555 208.781"
        fill="#aa5b26"/>
    <path
        id="path_32"
        d="M 380.949 374.121 L 380.949 474.246 C 380.949 479.934 376.34 484.547 370.648 484.547 L 141.351 484.547 C 135.66 484.547 131.05 479.934 131.05 474.246 L 131.05 374.121 C 131.05 341.394 157.573 314.867 190.296 314.867 L 321.702 314.867 C 354.425 314.867 380.948 341.394 380.948 374.121 Z M 380.949 374.121"
        fill="#a9d2f7"/>
    <path
        id="path_33"
        d="M 179.313 346.93 L 179.313 362.817 C 179.313 366.505 182.301 369.493 185.989 369.493 C 190.434 369.493 193.641 373.759 192.399 378.032 L 187.028 396.52 C 186.446 398.528 186.84 400.696 188.091 402.372 L 213.337 436.2 L 213.337 314.868 L 181.661 341.852 C 180.173 343.118 179.313 344.977 179.313 346.93 Z M 179.313 346.93"
        fill="#5f9eeb"/>
    <path
        id="path_34"
        d="M 335.527 346.93 L 335.527 362.817 C 335.527 366.505 332.539 369.493 328.851 369.493 C 324.402 369.493 321.199 373.759 322.441 378.032 L 327.808 396.52 C 328.394 398.528 327.999 400.696 326.749 402.372 L 301.503 436.2 L 301.503 314.868 L 333.179 341.852 C 334.667 343.118 335.527 344.977 335.527 346.93 Z M 335.527 346.93"
        fill="#5f9eeb"/>
    <path
        id="path_35"
        d="M 213.332 314.867 L 301.508 314.867 L 301.508 484.551 L 213.332 484.551 Z M 213.332 314.867"
        fill="#627687"/>
    <path
        id="path_36"
        d="M 380.949 374.109 L 380.949 474.246 C 380.949 479.937 376.34 484.547 370.648 484.547 L 360.761 484.547 L 360.761 374.121 C 360.761 341.402 334.226 314.867 301.507 314.867 L 321.706 314.867 C 354.425 314.867 380.948 341.39 380.948 374.109 Z M 380.949 374.109"
        fill="#7fb7ea"/>
    <path
        id="path_37"
        d="M 257.422 348.23 C 246.266 348.23 237.223 339.187 237.223 328.035 L 237.223 271.379 L 277.618 271.379 L 277.618 328.035 C 277.618 339.187 268.575 348.23 257.423 348.23 Z M 257.422 348.23"
        fill="#f8c298"/>
    <path
        id="path_38"
        d="M 150.57 192.371 L 364.265 192.371 L 369.902 164.883 C 384.5 93.68 330.101 27 257.422 27 C 184.734 27 130.34 93.68 144.938 164.883 Z M 150.57 192.371"
        fill="#ffcf64"/>
    <path
        id="path_39"
        d="M 359 126.992 C 354.734 126.992 351.273 130.453 351.273 134.719 L 351.273 151.297 C 345.234 151.192 336.23 150.692 325.882 149 L 325.882 164.617 C 337.003 166.289 346.468 166.719 352.546 166.769 L 352.671 166.769 C 356.401 166.769 359.913 165.324 362.566 162.695 C 365.25 160.035 366.726 156.488 366.726 152.707 L 366.726 134.719 C 366.726 130.453 363.269 126.992 358.999 126.992 Z M 359 126.992"
        fill="#efc40f"/>
    <path
        id="path_40"
        d="M 157.133 126.992 C 161.399 126.992 164.856 130.453 164.856 134.719 L 164.856 151.297 C 170.899 151.192 179.899 150.692 190.251 149 L 190.251 164.617 C 179.13 166.289 169.665 166.719 163.583 166.769 C 163.54 166.769 163.501 166.769 163.462 166.769 C 159.728 166.769 156.22 165.324 153.564 162.695 C 150.884 160.035 149.404 156.488 149.404 152.707 L 149.404 134.719 C 149.408 130.453 152.865 126.992 157.134 126.992 Z M 157.133 126.992"
        fill="#efc40f"/>
    <path
        id="path_41"
        d="M 376.188 203.133 C 376.188 218.153 364.012 230.324 348.993 230.324 C 333.977 230.324 321.802 218.152 321.802 203.133 C 321.802 188.117 333.978 175.942 348.993 175.942 C 364.013 175.942 376.188 188.118 376.188 203.133 Z M 376.188 203.133"
        fill="#f8c298"/>
    <path
        id="path_42"
        d="M 193.035 203.133 C 193.035 218.153 180.863 230.324 165.844 230.324 C 150.828 230.324 138.653 218.152 138.653 203.133 C 138.653 188.117 150.829 175.942 165.844 175.942 C 180.864 175.942 193.035 188.118 193.035 203.133 Z M 193.035 203.133"
        fill="#f8c298"/>
    <path
        id="path_43"
        d="M 176.301 162.785 L 184.696 230.004 C 189.278 266.684 220.458 294.211 257.419 294.211 C 294.384 294.211 325.56 266.684 330.142 230.004 L 338.537 162.785 C 341.049 142.691 325.381 124.941 305.131 124.941 L 209.713 124.941 C 189.463 124.941 173.791 142.691 176.303 162.785 Z M 176.301 162.785"
        fill="#ffd6c0"/>
    <path
        id="path_44"
        d="M 217.613 209.305 C 213.445 209.305 210.008 205.981 209.894 201.789 L 209.777 197.476 C 209.66 193.21 213.023 189.66 217.289 189.542 C 221.523 189.417 225.105 192.788 225.223 197.054 L 225.34 201.363 C 225.457 205.633 222.094 209.183 217.828 209.301 C 217.758 209.301 217.683 209.305 217.613 209.305 Z M 217.613 209.305"
        fill="#4fceb7"/>
    <path
        id="path_45"
        d="M 297.336 209.305 C 293.168 209.305 289.731 205.981 289.617 201.789 L 289.5 197.476 C 289.383 193.21 292.746 189.66 297.012 189.542 C 301.242 189.417 304.828 192.788 304.946 197.054 L 305.067 201.363 C 305.184 205.633 301.821 209.183 297.555 209.301 C 297.481 209.301 297.407 209.305 297.336 209.305 Z M 297.336 209.305"
        fill="#4fceb7"/>
    <path
        id="path_46"
        d="M 257.422 247.504 C 245.395 247.504 233.996 241.676 226.93 231.918 C 224.426 228.461 225.2 223.633 228.657 221.129 C 232.114 218.629 236.946 219.399 239.446 222.856 C 243.614 228.614 250.337 232.051 257.423 232.051 C 264.509 232.051 271.228 228.613 275.396 222.856 C 277.896 219.399 282.728 218.626 286.185 221.129 C 289.642 223.633 290.412 228.461 287.912 231.918 C 280.846 241.676 269.447 247.504 257.424 247.504 Z M 257.422 247.504"
        fill="#f8c298"/>
    <path
        id="path_47"
        d="M 187.039 423.445 L 187.039 484.547 L 171.586 484.547 L 171.586 423.445 C 171.586 419.183 175.047 415.722 179.313 415.722 C 183.579 415.722 187.04 419.183 187.04 423.445 Z M 187.039 423.445"
        fill="#7fb7ea"/>
    <path
        id="path_48"
        d="M 340.414 423.445 L 340.414 484.547 L 324.961 484.547 L 324.961 423.445 C 324.961 419.183 328.422 415.722 332.688 415.722 C 336.954 415.722 340.415 419.183 340.415 423.445 Z M 340.414 423.445"
        fill="#7fb7ea"/>
    <path
        id="path_49"
        d="M 164.867 113.434 L 164.867 149.836 C 164.867 153.356 167.734 156.199 171.258 156.172 C 187.84 156.027 227.887 153.137 258.071 130.359 C 288.259 153.136 328.305 156.027 344.887 156.172 C 348.41 156.199 351.274 153.356 351.274 149.836 L 351.274 113.434 Z M 164.867 113.434"
        fill="#ffcf64"/>
</svg>
