<svg
    xmlns="http://www.w3.org/2000/svg"
    viewBox="0 0 512 512"
    id="vector">
    <path
        id="path"
        d="M 239.869 128.533 C 160.598 128.533 96.335 192.795 96.335 272.066 C 96.335 280.35 103.051 287.066 111.335 287.066 L 368.402 287.066 C 376.686 287.066 383.402 280.35 383.402 272.066 C 383.403 192.796 319.141 128.533 239.869 128.533 Z"
        fill="#ffaa00"/>
    <path
        id="path_1"
        d="M 257.082 129.565 L 257.082 287.067 L 368.402 287.067 C 376.686 287.067 383.402 280.351 383.402 272.067 C 383.403 198.622 328.237 138.07 257.082 129.565 Z"
        fill="#ff7a00"/>
    <path
        id="path_2"
        d="M 239.869 158.533 C 177.166 158.533 126.336 209.364 126.336 272.066 C 126.336 280.35 133.052 287.066 141.336 287.066 L 338.403 287.066 C 346.687 287.066 353.403 280.35 353.403 272.066 C 353.403 209.364 302.572 158.533 239.869 158.533 Z"
        fill="#ffd700"/>
    <path
        id="path_3"
        d="M 257.082 159.831 L 257.082 287.067 L 338.402 287.067 C 346.686 287.067 353.402 280.351 353.402 272.067 C 353.403 215.216 311.617 168.125 257.082 159.831 Z"
        fill="#ffaa00"/>
    <path
        id="path_4"
        d="M 239.869 192.8 C 196.091 192.8 160.602 228.289 160.602 272.067 C 160.602 280.351 167.318 287.067 175.602 287.067 L 304.136 287.067 C 312.42 287.067 319.136 280.351 319.136 272.067 C 319.136 228.289 283.647 192.8 239.869 192.8 Z"
        fill="#ffaa00"/>
    <path
        id="path_5"
        d="M 257.082 194.696 L 257.082 287.067 L 304.136 287.067 C 312.42 287.067 319.136 280.351 319.136 272.067 C 319.136 234.203 292.58 202.56 257.082 194.696 Z"
        fill="#ff7a00"/>
    <path
        id="path_6"
        d="M 336.349 176.798 C 257.078 176.798 192.815 241.06 192.815 320.331 C 192.815 328.615 199.531 335.331 207.815 335.331 L 464.882 335.331 C 473.166 335.331 479.882 328.615 479.882 320.331 C 479.883 241.06 415.621 176.798 336.349 176.798 Z"
        fill="#fffa8c"/>
    <path
        id="path_7"
        d="M 257.082 335.331 L 464.33 335.331 C 468.682 321.302 472.8 306.147 476.656 289.974 C 462.725 225.284 405.205 176.798 336.35 176.798 C 307.045 176.798 279.797 185.588 257.083 200.663 L 257.083 335.331 Z"
        fill="#ffd700"/>
    <path
        id="path_8"
        d="M 336.349 206.798 C 273.646 206.798 222.816 257.629 222.816 320.331 C 222.816 328.615 229.532 335.331 237.816 335.331 L 434.883 335.331 C 443.167 335.331 449.883 328.615 449.883 320.331 C 449.883 257.628 399.052 206.798 336.349 206.798 Z"
        fill="#ffaa00"/>
    <path
        id="path_9"
        d="M 336.349 241.064 C 292.571 241.064 257.082 276.553 257.082 320.331 C 257.082 328.615 263.798 335.331 272.082 335.331 L 400.616 335.331 C 408.9 335.331 415.616 328.615 415.616 320.331 C 415.616 276.553 380.127 241.064 336.349 241.064 Z"
        fill="#ff7a00"/>
    <path
        id="path_10"
        d="M 336.349 271.064 C 309.14 271.064 287.082 293.122 287.082 320.331 C 287.082 328.615 293.798 335.331 302.082 335.331 L 370.616 335.331 C 378.9 335.331 385.616 328.615 385.616 320.331 C 385.616 293.122 363.559 271.064 336.349 271.064 Z"
        fill="#ffaa00"/>
    <path
        id="path_11"
        d="M 143.534 176.798 C 64.262 176.798 0 241.06 0 320.331 C 0 328.615 6.716 335.331 15 335.331 L 272.067 335.331 C 280.351 335.331 287.067 328.615 287.067 320.331 C 287.067 241.06 222.805 176.798 143.534 176.798 Z"
        fill="#fffa8c"/>
    <path
        id="path_12"
        d="M 143.534 206.798 C 80.831 206.798 30 257.628 30 320.331 C 30 328.615 36.716 335.331 45 335.331 L 242.067 335.331 C 250.351 335.331 257.067 328.615 257.067 320.331 C 257.067 257.628 206.237 206.798 143.534 206.798 Z"
        fill="#ffd700"/>
    <path
        id="path_13"
        d="M 143.534 241.064 C 99.756 241.064 64.267 276.553 64.267 320.331 C 64.267 328.615 70.983 335.331 79.267 335.331 L 207.801 335.331 C 216.085 335.331 222.801 328.615 222.801 320.331 C 222.801 276.553 187.312 241.064 143.534 241.064 Z"
        fill="#ffaa00"/>
    <path
        id="path_14"
        d="M 143.534 271.064 C 116.325 271.064 94.267 293.122 94.267 320.331 C 94.267 328.615 100.983 335.331 109.267 335.331 L 177.801 335.331 C 186.085 335.331 192.801 328.615 192.801 320.331 C 192.801 293.122 170.743 271.064 143.534 271.064 Z"
        fill="#ffd700"/>
    <path
        id="path_15"
        d="M 165.059 89.873 C 159.202 84.015 159.202 74.518 165.06 68.66 C 168.082 65.639 168.085 60.765 165.06 57.742 C 157.932 50.614 154.006 41.141 154.006 31.068 C 154.006 20.995 157.931 11.522 165.059 4.395 C 170.916 -1.463 180.414 -1.463 186.272 4.395 C 192.13 10.253 192.13 19.75 186.272 25.608 C 183.25 28.63 183.246 33.503 186.272 36.528 C 193.399 43.654 197.325 53.128 197.325 63.201 C 197.325 73.274 193.399 82.747 186.271 89.875 C 180.413 95.733 170.915 95.73 165.059 89.873 Z"
        fill="#fae3cd"/>
    <path
        id="path_16"
        d="M 245.393 89.873 C 239.536 84.015 239.536 74.518 245.394 68.66 C 248.416 65.639 248.419 60.765 245.394 57.742 C 238.266 50.614 234.34 41.141 234.34 31.068 C 234.34 20.995 238.265 11.522 245.393 4.395 C 251.25 -1.463 260.748 -1.463 266.606 4.395 C 272.464 10.253 272.464 19.75 266.606 25.608 C 263.584 28.63 263.58 33.503 266.606 36.528 C 273.733 43.654 277.659 53.128 277.659 63.201 C 277.659 73.274 273.733 82.747 266.605 89.875 C 260.747 95.733 251.249 95.73 245.393 89.873 Z"
        fill="#fae3cd"/>
    <path
        id="path_17"
        d="M 325.727 89.873 C 319.87 84.015 319.87 74.518 325.728 68.66 C 328.75 65.639 328.753 60.765 325.728 57.742 C 318.6 50.614 314.674 41.141 314.674 31.068 C 314.674 20.995 318.599 11.522 325.727 4.395 C 331.584 -1.463 341.082 -1.463 346.94 4.395 C 352.798 10.253 352.798 19.75 346.94 25.608 C 343.918 28.63 343.914 33.503 346.94 36.528 C 354.067 43.654 357.993 53.128 357.993 63.201 C 357.993 73.274 354.067 82.747 346.939 89.875 C 341.081 95.733 331.583 95.73 325.727 89.873 Z"
        fill="#fae3cd"/>
    <path
        id="path_18"
        d="M 257.082 335.331 L 272.067 335.331 C 280.351 335.331 287.067 328.615 287.067 320.331 C 287.067 287.259 275.875 256.806 257.082 232.535 Z"
        fill="#ffd700"/>
    <path
        id="path_19"
        d="M 432.733 176.798 C 388.955 176.798 353.466 212.287 353.466 256.065 L 353.466 320.332 C 353.466 328.616 360.182 335.332 368.466 335.332 L 432.733 335.332 C 476.511 335.332 512 299.843 512 256.065 L 512 191.798 C 512 183.514 505.284 176.798 497 176.798 Z"
        fill="#82fa73"/>
    <path
        id="path_20"
        d="M 512 256.065 L 512 191.798 C 512 187.656 510.321 183.906 507.607 181.191 L 357.86 330.938 C 360.574 333.652 364.325 335.331 368.467 335.331 L 432.734 335.331 C 476.511 335.332 512 299.843 512 256.065 Z"
        fill="#41d76c"/>
    <path
        id="path_21"
        d="M 443.339 245.458 C 437.482 239.6 427.984 239.6 422.126 245.458 L 357.859 309.724 C 352.001 315.582 352.001 325.079 357.859 330.937 C 363.716 336.795 373.214 336.795 379.072 330.937 L 443.339 266.671 C 449.197 260.813 449.197 251.316 443.339 245.458 Z"
        fill="#41d76c"/>
    <path
        id="path_22"
        d="M 379.073 330.938 L 443.34 266.672 C 449.198 260.814 449.198 251.317 443.34 245.459 L 357.861 330.938 C 363.717 336.796 373.215 336.796 379.073 330.938 Z"
        fill="#00b464"/>
    <path
        id="path_23"
        d="M 384.533 512 L 127.467 512 C 119.183 512 112.467 505.284 112.467 497 L 112.467 432.789 C 112.467 424.505 119.183 417.789 127.467 417.789 L 384.533 417.789 C 392.817 417.789 399.533 424.505 399.533 432.789 L 399.533 497 C 399.533 505.284 392.818 512 384.533 512 Z"
        fill="#9c6114"/>
    <path
        id="path_24"
        d="M 384.533 417.789 L 257.082 417.789 L 257.082 512 L 384.533 512 C 392.817 512 399.533 505.284 399.533 497 L 399.533 432.789 C 399.533 424.505 392.818 417.789 384.533 417.789 Z"
        fill="#6d3700"/>
    <path
        id="path_25"
        d="M 497 305.331 L 15 305.331 C 6.716 305.331 0 312.047 0 320.331 C 0 390.552 56.925 447.477 127.145 447.477 L 384.854 447.477 C 455.075 447.477 512 390.552 512 320.331 C 512 312.047 505.284 305.331 497 305.331 Z"
        fill="#c78a42"/>
    <path
        id="path_26"
        d="M 497 305.331 L 257.082 305.331 L 257.082 447.477 L 384.854 447.477 C 455.075 447.477 512 390.552 512 320.331 C 512 312.047 505.284 305.331 497 305.331 Z"
        fill="#9c6114"/>
</svg>
