<svg
    xmlns="http://www.w3.org/2000/svg"
    viewBox="0 0 512 512"
    id="vector">
    <path
        id="path"
        d="M 221.449 407.112 L 471.034 388.505 C 519.549 333.833 500.931 251.516 436.244 223.518 L 323.073 183.655 L 326.236 182.036 C 266.413 171.084 213.811 191.958 184.272 229.789 C 134.713 245.893 115.2 271.448 107.472 292.793 C 98.432 333.863 92.584 406.406 221.449 407.112 Z"
        fill="#db885e"
        fill-rule="evenodd"/>
    <path
        id="path_1"
        d="M 59.853 331.154 C 27.062 333.98 12.591 365.306 20.051 388.505 L 102.61 408.908 L 190.181 388.505 C 198.446 363.716 183.169 333.98 150.379 331.154 C 145.754 306.512 126.897 293.676 107.474 292.792 C 86.646 291.821 65.164 304.569 59.853 331.154 Z"
        fill="#b3e59f"
        fill-rule="evenodd"/>
    <path
        id="path_2"
        d="M 221.449 197.846 C 237.352 195.962 254.299 196.433 271.843 199.642 L 291.416 206.561 C 299.532 198.141 309.975 190.368 323.073 183.656 L 326.236 182.037 C 286.613 174.764 250.152 181.476 221.449 197.846 Z"
        fill="#c57142"
        fill-rule="evenodd"/>
    <path
        id="path_3"
        d="M 423.981 268.298 C 450.297 301.007 453.251 349.114 429.59 388.506 L 471.033 388.506 C 519.548 333.834 500.93 251.517 436.243 223.519 L 425.054 264.56 C 424.727 265.825 424.369 267.061 423.981 268.298 Z"
        fill="#c57142"
        fill-rule="evenodd"/>
    <path
        id="path_4"
        d="M 442.182 115.794 L 419.088 144.116 L 420.848 166.02 L 443.554 163.547 L 466.648 135.195 C 487.116 151.446 509.136 124.42 488.668 108.198 C 483.894 104.4 476.375 106.225 472.735 103.311 C 468.976 100.337 469.095 92.653 464.202 88.767 C 443.703 72.545 421.714 99.542 442.182 115.794 Z"
        fill="#efecff"
        fill-rule="evenodd"/>
    <path
        id="path_5"
        d="M 132.356 354.913 C 132.326 366.66 130.685 377.965 127.731 388.505 L 190.18 388.505 C 198.445 363.716 183.168 333.98 150.378 331.154 C 149.632 327.179 148.498 323.499 147.066 320.143 C 146.678 319.201 146.231 318.259 145.783 317.346 C 139.458 304.804 128.567 297.061 116.573 294.088 C 126.509 311.075 132.357 331.949 132.357 354.53 C 132.356 354.648 132.356 354.796 132.356 354.913 Z"
        fill="#95d6a4"
        fill-rule="evenodd"/>
    <path
        id="path_6"
        d="M 323.073 183.655 C 249.853 221.163 258.954 292.322 300.128 321.292 C 338.2 348.113 407.212 330.183 425.055 264.559 L 436.244 223.518 L 447.433 182.448 C 449.73 173.969 448.119 167.168 443.554 163.547 L 419.088 144.116 C 414.523 140.524 407.422 140.436 399.545 144.469 L 326.236 182.036 Z"
        fill="#f8d2ab"
        fill-rule="evenodd"/>
    <path
        id="path_7"
        d="M 300.129 321.292 C 338.201 348.113 407.213 330.183 425.056 264.559 L 436.245 223.518 L 447.434 182.448 C 449.731 173.969 448.12 167.168 443.555 163.547 L 423.057 147.266 C 422.997 149.327 422.669 151.535 422.013 153.89 L 410.854 194.931 L 399.665 236.001 C 382.09 300.536 315.077 318.936 276.617 294 C 282.107 304.834 290.193 314.285 300.129 321.292 Z"
        fill="#ffbb8b"
        fill-rule="evenodd"/>
    <path
        id="path_8"
        d="M 430.993 153.831 L 443.554 163.547 L 466.648 135.195 C 487.116 151.446 509.136 124.42 488.668 108.198 C 488.22 107.845 487.773 107.55 487.296 107.285 C 487.863 119.797 478.494 128.188 464.471 119.532 C 461.398 117.648 460.533 119.414 458.086 122.329 Z"
        fill="#d5cef7"
        fill-rule="evenodd"/>
    <path
        id="path_9"
        d="M 237.496 117.573 C 235.818 117.573 234.129 117.03 232.71 115.908 C 224.021 109.041 211.463 90.349 226.126 68.762 C 235.518 54.937 229.28 49.321 224.267 44.808 C 223.651 44.255 223.111 43.763 222.675 43.333 C 219.638 40.336 219.605 35.444 222.602 32.406 C 225.601 29.367 230.493 29.338 233.529 32.333 C 233.823 32.623 234.191 32.95 234.606 33.323 C 239.867 38.059 255.876 52.47 238.909 77.446 C 234.474 83.973 233.709 90.107 236.566 96.198 C 238.752 100.856 242.257 103.758 242.291 103.786 C 245.639 106.432 246.208 111.29 243.562 114.638 C 242.038 116.567 239.778 117.573 237.496 117.573 Z"
        fill="#d5cef7"/>
    <path
        id="path_10"
        d="M 149.146 149.17 C 147.458 149.17 145.758 148.624 144.334 147.499 C 135.644 140.631 123.086 121.94 137.751 100.352 C 147.143 86.528 140.905 80.912 135.892 76.399 C 135.276 75.846 134.736 75.354 134.3 74.924 C 131.263 71.927 131.23 67.035 134.227 63.997 C 137.226 60.959 142.117 60.929 145.154 63.924 C 145.448 64.214 145.816 64.541 146.231 64.914 C 151.492 69.65 167.501 84.062 150.534 109.036 C 146.199 115.416 145.37 121.413 148.001 127.369 C 150.169 132.279 153.924 135.38 153.962 135.41 C 157.31 138.056 157.856 142.897 155.21 146.245 C 153.688 148.17 151.429 149.17 149.146 149.17 Z"
        fill="#d5cef7"/>
    <path
        id="path_11"
        d="M 105.115 328.079 C 100.847 328.079 97.389 331.538 97.389 335.805 L 97.389 355.122 L 80.178 347.47 C 76.28 345.737 71.714 347.491 69.979 351.392 C 68.246 355.291 70.001 359.857 73.901 361.591 L 97.39 372.034 L 97.39 385.796 C 97.39 390.064 100.849 393.522 105.116 393.522 C 109.384 393.522 112.842 390.063 112.842 385.796 L 112.842 335.805 C 112.841 331.538 109.382 328.079 105.115 328.079 Z"
        fill="#95d6a4"/>
    <path
        id="path_12"
        d="M 256 416.504 L 471.213 444.532 L 471.213 463.198 C 471.213 473.473 462.68 481.893 452.267 481.893 L 59.703 481.893 C 49.29 481.893 40.786 473.473 40.786 463.198 L 40.786 444.532 Z"
        fill="#a9aac9"
        fill-rule="evenodd"/>
    <path
        id="path_13"
        d="M 387.551 444.532 L 387.551 463.198 C 387.551 465.023 387.282 466.79 386.775 468.468 C 384.448 476.211 377.168 481.893 368.604 481.893 L 452.266 481.893 C 462.679 481.893 471.212 473.473 471.212 463.198 L 471.212 444.532 L 447.551 444.532 L 415.18 444.532 Z"
        fill="#8080a4"
        fill-rule="evenodd"/>
    <path
        id="path_14"
        d="M 512 395.071 L 512 416.504 C 512 431.931 499.2 444.532 483.595 444.532 L 471.213 444.532 L 447.552 444.532 L 157.598 444.532 L 40.787 444.532 L 28.375 444.532 C 12.77 444.532 0 431.931 0 416.504 L 0 395.071 C 0 391.45 2.984 388.506 6.654 388.506 L 102.699 388.506 L 106.369 388.506 L 219.36 388.506 L 479.15 388.506 L 505.347 388.506 C 508.986 388.506 512 391.45 512 395.071 Z"
        fill="#ff9a9f"
        fill-rule="evenodd"/>
    <path
        id="path_15"
        d="M 415.18 444.532 L 447.553 444.532 L 471.214 444.532 L 483.596 444.532 C 499.201 444.532 512.001 431.931 512.001 416.504 L 512.001 395.071 C 512.001 391.45 508.987 388.506 505.347 388.506 L 479.15 388.506 L 443.793 388.506 L 443.793 412.648 C 443.793 429.811 441.048 444.532 415.18 444.532 Z"
        fill="#ff8086"
        fill-rule="evenodd"/>
</svg>
